<mxfile host="app.diagrams.net" modified="2023-08-24T04:55:35.892Z" agent="Mozilla/5.0 (Windows NT 10.0; Win64; x64) AppleWebKit/537.36 (KHTML, like Gecko) Chrome/116.0.0.0 Safari/537.36" etag="ED-Z-bzSh5lf94tgGLHH" version="21.6.8" type="github" pages="2">
  <diagram id="_6Fdi7aDGBSRIw3GxKR2" name="Page-1">
    <mxGraphModel dx="1434" dy="758" grid="1" gridSize="10" guides="1" tooltips="1" connect="1" arrows="1" fold="1" page="1" pageScale="1" pageWidth="850" pageHeight="1100" math="0" shadow="0">
      <root>
        <mxCell id="0" />
        <mxCell id="1" parent="0" />
        <mxCell id="vGGUWoOZ8pob6DAX7Hds-49" style="edgeStyle=orthogonalEdgeStyle;rounded=0;orthogonalLoop=1;jettySize=auto;html=1;entryX=1;entryY=0.5;entryDx=0;entryDy=0;" parent="1" source="vGGUWoOZ8pob6DAX7Hds-8" target="vGGUWoOZ8pob6DAX7Hds-37" edge="1">
          <mxGeometry relative="1" as="geometry" />
        </mxCell>
        <mxCell id="vGGUWoOZ8pob6DAX7Hds-54" value="&lt;b&gt;1&lt;/b&gt;" style="edgeLabel;html=1;align=center;verticalAlign=middle;resizable=0;points=[];" parent="vGGUWoOZ8pob6DAX7Hds-49" vertex="1" connectable="0">
          <mxGeometry x="-0.2124" y="1" relative="1" as="geometry">
            <mxPoint as="offset" />
          </mxGeometry>
        </mxCell>
        <mxCell id="vGGUWoOZ8pob6DAX7Hds-8" value="" style="shape=image;verticalLabelPosition=bottom;labelBackgroundColor=default;verticalAlign=top;aspect=fixed;imageAspect=0;image=https://www.opc-router.de/wp-content/uploads/2021/03/mongodb_thumbnail.png;" parent="1" vertex="1">
          <mxGeometry x="574.7" y="130" width="74.35" height="100" as="geometry" />
        </mxCell>
        <mxCell id="vGGUWoOZ8pob6DAX7Hds-22" value="" style="group" parent="1" vertex="1" connectable="0">
          <mxGeometry x="531.87" y="310" width="160" height="160" as="geometry" />
        </mxCell>
        <mxCell id="vGGUWoOZ8pob6DAX7Hds-17" value="" style="whiteSpace=wrap;html=1;aspect=fixed;labelBackgroundColor=none;fillColor=none;" parent="vGGUWoOZ8pob6DAX7Hds-22" vertex="1">
          <mxGeometry width="160" height="160" as="geometry" />
        </mxCell>
        <mxCell id="vGGUWoOZ8pob6DAX7Hds-18" value="" style="group" parent="vGGUWoOZ8pob6DAX7Hds-22" vertex="1" connectable="0">
          <mxGeometry x="35.000000000000114" y="36" width="90" height="90" as="geometry" />
        </mxCell>
        <mxCell id="vGGUWoOZ8pob6DAX7Hds-20" value="&lt;b&gt;MISRPTDB&lt;/b&gt;" style="text;html=1;align=center;verticalAlign=middle;resizable=0;points=[];autosize=1;strokeColor=none;fillColor=none;" parent="vGGUWoOZ8pob6DAX7Hds-18" vertex="1">
          <mxGeometry y="60" width="90" height="30" as="geometry" />
        </mxCell>
        <mxCell id="vGGUWoOZ8pob6DAX7Hds-21" value="Azure" style="text;html=1;align=center;verticalAlign=middle;resizable=0;points=[];autosize=1;strokeColor=none;fillColor=none;" parent="vGGUWoOZ8pob6DAX7Hds-22" vertex="1">
          <mxGeometry width="50" height="30" as="geometry" />
        </mxCell>
        <mxCell id="vGGUWoOZ8pob6DAX7Hds-33" value="" style="aspect=fixed;html=1;points=[];align=center;image;fontSize=12;image=img/lib/azure2/databases/SQL_Server.svg;labelBackgroundColor=none;fillColor=none;" parent="vGGUWoOZ8pob6DAX7Hds-22" vertex="1">
          <mxGeometry x="50" y="30" width="68" height="68" as="geometry" />
        </mxCell>
        <mxCell id="vGGUWoOZ8pob6DAX7Hds-51" style="edgeStyle=orthogonalEdgeStyle;rounded=0;orthogonalLoop=1;jettySize=auto;html=1;entryX=0.5;entryY=0;entryDx=0;entryDy=0;" parent="1" source="vGGUWoOZ8pob6DAX7Hds-37" target="vGGUWoOZ8pob6DAX7Hds-17" edge="1">
          <mxGeometry relative="1" as="geometry">
            <Array as="points">
              <mxPoint x="239.87" y="280" />
              <mxPoint x="611.87" y="280" />
            </Array>
          </mxGeometry>
        </mxCell>
        <mxCell id="vGGUWoOZ8pob6DAX7Hds-55" value="2" style="edgeLabel;html=1;align=center;verticalAlign=middle;resizable=0;points=[];fontStyle=1" parent="vGGUWoOZ8pob6DAX7Hds-51" vertex="1" connectable="0">
          <mxGeometry x="0.0864" y="1" relative="1" as="geometry">
            <mxPoint as="offset" />
          </mxGeometry>
        </mxCell>
        <mxCell id="vGGUWoOZ8pob6DAX7Hds-52" value="" style="group" parent="1" vertex="1" connectable="0">
          <mxGeometry x="120" y="80" width="240" height="400" as="geometry" />
        </mxCell>
        <mxCell id="vGGUWoOZ8pob6DAX7Hds-36" value="" style="rounded=0;whiteSpace=wrap;html=1;labelBackgroundColor=none;fillColor=none;" parent="vGGUWoOZ8pob6DAX7Hds-52" vertex="1">
          <mxGeometry y="30" width="240" height="370" as="geometry" />
        </mxCell>
        <mxCell id="vGGUWoOZ8pob6DAX7Hds-44" value="" style="group" parent="vGGUWoOZ8pob6DAX7Hds-52" vertex="1" connectable="0">
          <mxGeometry x="80" y="65" width="80" height="110" as="geometry" />
        </mxCell>
        <mxCell id="vGGUWoOZ8pob6DAX7Hds-39" value="" style="group" parent="vGGUWoOZ8pob6DAX7Hds-44" vertex="1" connectable="0">
          <mxGeometry y="30" width="80" height="80" as="geometry" />
        </mxCell>
        <mxCell id="vGGUWoOZ8pob6DAX7Hds-37" value="" style="whiteSpace=wrap;html=1;aspect=fixed;labelBackgroundColor=none;fillColor=none;" parent="vGGUWoOZ8pob6DAX7Hds-39" vertex="1">
          <mxGeometry width="80" height="80" as="geometry" />
        </mxCell>
        <mxCell id="vGGUWoOZ8pob6DAX7Hds-38" value="" style="outlineConnect=0;dashed=0;verticalLabelPosition=bottom;verticalAlign=top;align=center;html=1;shape=mxgraph.aws3.worker;fillColor=#D9A741;gradientColor=none;labelBackgroundColor=none;" parent="vGGUWoOZ8pob6DAX7Hds-39" vertex="1">
          <mxGeometry x="20" y="20" width="40" height="40" as="geometry" />
        </mxCell>
        <mxCell id="vGGUWoOZ8pob6DAX7Hds-43" value="Batch" style="text;html=1;align=center;verticalAlign=middle;resizable=0;points=[];autosize=1;strokeColor=none;fillColor=none;" parent="vGGUWoOZ8pob6DAX7Hds-44" vertex="1">
          <mxGeometry width="50" height="30" as="geometry" />
        </mxCell>
        <mxCell id="vGGUWoOZ8pob6DAX7Hds-46" value="" style="group" parent="vGGUWoOZ8pob6DAX7Hds-52" vertex="1" connectable="0">
          <mxGeometry x="65" y="240" width="110" height="110" as="geometry" />
        </mxCell>
        <mxCell id="vGGUWoOZ8pob6DAX7Hds-42" value="" style="group" parent="vGGUWoOZ8pob6DAX7Hds-46" vertex="1" connectable="0">
          <mxGeometry x="15" y="30" width="80" height="80" as="geometry" />
        </mxCell>
        <mxCell id="vGGUWoOZ8pob6DAX7Hds-40" value="" style="whiteSpace=wrap;html=1;aspect=fixed;labelBackgroundColor=none;fillColor=none;" parent="vGGUWoOZ8pob6DAX7Hds-42" vertex="1">
          <mxGeometry width="80" height="80" as="geometry" />
        </mxCell>
        <mxCell id="vGGUWoOZ8pob6DAX7Hds-41" value="" style="verticalLabelPosition=bottom;html=1;verticalAlign=top;align=center;strokeColor=none;fillColor=#00BEF2;shape=mxgraph.azure.script_file;pointerEvents=1;labelBackgroundColor=none;" parent="vGGUWoOZ8pob6DAX7Hds-42" vertex="1">
          <mxGeometry x="20" y="15" width="40" height="50" as="geometry" />
        </mxCell>
        <mxCell id="vGGUWoOZ8pob6DAX7Hds-45" value="Store Procedure" style="text;html=1;align=center;verticalAlign=middle;resizable=0;points=[];autosize=1;strokeColor=none;fillColor=none;" parent="vGGUWoOZ8pob6DAX7Hds-46" vertex="1">
          <mxGeometry width="110" height="30" as="geometry" />
        </mxCell>
        <mxCell id="vGGUWoOZ8pob6DAX7Hds-47" value="PCLA" style="text;html=1;align=center;verticalAlign=middle;resizable=0;points=[];autosize=1;strokeColor=none;fillColor=none;" parent="vGGUWoOZ8pob6DAX7Hds-52" vertex="1">
          <mxGeometry x="1.8699999999999974" width="50" height="30" as="geometry" />
        </mxCell>
        <mxCell id="vGGUWoOZ8pob6DAX7Hds-53" style="edgeStyle=orthogonalEdgeStyle;rounded=0;orthogonalLoop=1;jettySize=auto;html=1;entryX=0;entryY=0.5;entryDx=0;entryDy=0;" parent="1" source="vGGUWoOZ8pob6DAX7Hds-40" target="vGGUWoOZ8pob6DAX7Hds-17" edge="1">
          <mxGeometry relative="1" as="geometry" />
        </mxCell>
        <mxCell id="vGGUWoOZ8pob6DAX7Hds-56" value="3" style="edgeLabel;html=1;align=center;verticalAlign=middle;resizable=0;points=[];fontStyle=1" parent="vGGUWoOZ8pob6DAX7Hds-53" vertex="1" connectable="0">
          <mxGeometry x="-0.0958" y="-2" relative="1" as="geometry">
            <mxPoint as="offset" />
          </mxGeometry>
        </mxCell>
        <mxCell id="vGGUWoOZ8pob6DAX7Hds-57" value="Read data" style="text;html=1;align=center;verticalAlign=middle;resizable=0;points=[];autosize=1;strokeColor=none;fillColor=none;labelBackgroundColor=none;" parent="1" vertex="1">
          <mxGeometry x="441.87" y="180" width="80" height="30" as="geometry" />
        </mxCell>
        <mxCell id="vGGUWoOZ8pob6DAX7Hds-58" value="Write to temp tables" style="text;html=1;align=center;verticalAlign=middle;resizable=0;points=[];autosize=1;strokeColor=none;fillColor=none;" parent="1" vertex="1">
          <mxGeometry x="441.87" y="280" width="130" height="30" as="geometry" />
        </mxCell>
        <mxCell id="vGGUWoOZ8pob6DAX7Hds-59" value="Modelling and mapping&amp;nbsp;" style="text;html=1;align=center;verticalAlign=middle;resizable=0;points=[];autosize=1;strokeColor=none;fillColor=none;" parent="1" vertex="1">
          <mxGeometry x="391.87" y="390" width="150" height="30" as="geometry" />
        </mxCell>
        <mxCell id="vGGUWoOZ8pob6DAX7Hds-60" style="edgeStyle=orthogonalEdgeStyle;rounded=0;orthogonalLoop=1;jettySize=auto;html=1;entryX=1;entryY=0.5;entryDx=0;entryDy=0;" parent="1" source="vGGUWoOZ8pob6DAX7Hds-62" target="vGGUWoOZ8pob6DAX7Hds-75" edge="1">
          <mxGeometry relative="1" as="geometry" />
        </mxCell>
        <mxCell id="vGGUWoOZ8pob6DAX7Hds-61" value="&lt;b&gt;1&lt;/b&gt;" style="edgeLabel;html=1;align=center;verticalAlign=middle;resizable=0;points=[];" parent="vGGUWoOZ8pob6DAX7Hds-60" vertex="1" connectable="0">
          <mxGeometry x="-0.2124" y="1" relative="1" as="geometry">
            <mxPoint as="offset" />
          </mxGeometry>
        </mxCell>
        <mxCell id="vGGUWoOZ8pob6DAX7Hds-62" value="" style="shape=image;verticalLabelPosition=bottom;labelBackgroundColor=default;verticalAlign=top;aspect=fixed;imageAspect=0;image=https://www.opc-router.de/wp-content/uploads/2021/03/mongodb_thumbnail.png;" parent="1" vertex="1">
          <mxGeometry x="574.7" y="610" width="74.35" height="100" as="geometry" />
        </mxCell>
        <mxCell id="vGGUWoOZ8pob6DAX7Hds-63" value="" style="group" parent="1" vertex="1" connectable="0">
          <mxGeometry x="531.87" y="790" width="160" height="160" as="geometry" />
        </mxCell>
        <mxCell id="vGGUWoOZ8pob6DAX7Hds-64" value="" style="whiteSpace=wrap;html=1;aspect=fixed;labelBackgroundColor=none;fillColor=none;" parent="vGGUWoOZ8pob6DAX7Hds-63" vertex="1">
          <mxGeometry width="160" height="160" as="geometry" />
        </mxCell>
        <mxCell id="vGGUWoOZ8pob6DAX7Hds-65" value="" style="group" parent="vGGUWoOZ8pob6DAX7Hds-63" vertex="1" connectable="0">
          <mxGeometry x="35.000000000000114" y="36" width="90" height="90" as="geometry" />
        </mxCell>
        <mxCell id="vGGUWoOZ8pob6DAX7Hds-66" value="&lt;b&gt;MISRPTDB&lt;/b&gt;" style="text;html=1;align=center;verticalAlign=middle;resizable=0;points=[];autosize=1;strokeColor=none;fillColor=none;" parent="vGGUWoOZ8pob6DAX7Hds-65" vertex="1">
          <mxGeometry y="60" width="90" height="30" as="geometry" />
        </mxCell>
        <mxCell id="vGGUWoOZ8pob6DAX7Hds-67" value="Azure" style="text;html=1;align=center;verticalAlign=middle;resizable=0;points=[];autosize=1;strokeColor=none;fillColor=none;" parent="vGGUWoOZ8pob6DAX7Hds-63" vertex="1">
          <mxGeometry width="50" height="30" as="geometry" />
        </mxCell>
        <mxCell id="vGGUWoOZ8pob6DAX7Hds-68" value="" style="aspect=fixed;html=1;points=[];align=center;image;fontSize=12;image=img/lib/azure2/databases/SQL_Server.svg;labelBackgroundColor=none;fillColor=none;" parent="vGGUWoOZ8pob6DAX7Hds-63" vertex="1">
          <mxGeometry x="50" y="30" width="68" height="68" as="geometry" />
        </mxCell>
        <mxCell id="vGGUWoOZ8pob6DAX7Hds-69" style="edgeStyle=orthogonalEdgeStyle;rounded=0;orthogonalLoop=1;jettySize=auto;html=1;entryX=0.5;entryY=0;entryDx=0;entryDy=0;" parent="1" source="vGGUWoOZ8pob6DAX7Hds-75" target="vGGUWoOZ8pob6DAX7Hds-64" edge="1">
          <mxGeometry relative="1" as="geometry">
            <Array as="points">
              <mxPoint x="239.87" y="760" />
              <mxPoint x="611.87" y="760" />
            </Array>
          </mxGeometry>
        </mxCell>
        <mxCell id="vGGUWoOZ8pob6DAX7Hds-70" value="2" style="edgeLabel;html=1;align=center;verticalAlign=middle;resizable=0;points=[];fontStyle=1" parent="vGGUWoOZ8pob6DAX7Hds-69" vertex="1" connectable="0">
          <mxGeometry x="0.0864" y="1" relative="1" as="geometry">
            <mxPoint as="offset" />
          </mxGeometry>
        </mxCell>
        <mxCell id="vGGUWoOZ8pob6DAX7Hds-71" value="" style="group" parent="1" vertex="1" connectable="0">
          <mxGeometry x="120" y="560" width="240" height="400" as="geometry" />
        </mxCell>
        <mxCell id="vGGUWoOZ8pob6DAX7Hds-72" value="" style="rounded=0;whiteSpace=wrap;html=1;labelBackgroundColor=none;fillColor=none;" parent="vGGUWoOZ8pob6DAX7Hds-71" vertex="1">
          <mxGeometry y="30" width="240" height="370" as="geometry" />
        </mxCell>
        <mxCell id="vGGUWoOZ8pob6DAX7Hds-73" value="" style="group" parent="vGGUWoOZ8pob6DAX7Hds-71" vertex="1" connectable="0">
          <mxGeometry x="80" y="65" width="80" height="110" as="geometry" />
        </mxCell>
        <mxCell id="vGGUWoOZ8pob6DAX7Hds-74" value="" style="group" parent="vGGUWoOZ8pob6DAX7Hds-73" vertex="1" connectable="0">
          <mxGeometry y="30" width="80" height="80" as="geometry" />
        </mxCell>
        <mxCell id="vGGUWoOZ8pob6DAX7Hds-75" value="" style="whiteSpace=wrap;html=1;aspect=fixed;labelBackgroundColor=none;fillColor=none;" parent="vGGUWoOZ8pob6DAX7Hds-74" vertex="1">
          <mxGeometry width="80" height="80" as="geometry" />
        </mxCell>
        <mxCell id="vGGUWoOZ8pob6DAX7Hds-89" value="" style="shape=image;html=1;verticalAlign=top;verticalLabelPosition=bottom;labelBackgroundColor=#ffffff;imageAspect=0;aspect=fixed;image=https://cdn3.iconfinder.com/data/icons/document-icons-2/30/647702-excel-128.png;fillColor=none;" parent="vGGUWoOZ8pob6DAX7Hds-74" vertex="1">
          <mxGeometry x="20" y="20" width="40" height="40" as="geometry" />
        </mxCell>
        <mxCell id="vGGUWoOZ8pob6DAX7Hds-78" value="" style="group" parent="vGGUWoOZ8pob6DAX7Hds-71" vertex="1" connectable="0">
          <mxGeometry x="65" y="240" width="110" height="110" as="geometry" />
        </mxCell>
        <mxCell id="vGGUWoOZ8pob6DAX7Hds-79" value="" style="group" parent="vGGUWoOZ8pob6DAX7Hds-78" vertex="1" connectable="0">
          <mxGeometry x="15" y="30" width="80" height="80" as="geometry" />
        </mxCell>
        <mxCell id="vGGUWoOZ8pob6DAX7Hds-80" value="" style="whiteSpace=wrap;html=1;aspect=fixed;labelBackgroundColor=none;fillColor=none;" parent="vGGUWoOZ8pob6DAX7Hds-79" vertex="1">
          <mxGeometry width="80" height="80" as="geometry" />
        </mxCell>
        <mxCell id="vGGUWoOZ8pob6DAX7Hds-81" value="" style="verticalLabelPosition=bottom;html=1;verticalAlign=top;align=center;strokeColor=none;fillColor=#00BEF2;shape=mxgraph.azure.script_file;pointerEvents=1;labelBackgroundColor=none;" parent="vGGUWoOZ8pob6DAX7Hds-79" vertex="1">
          <mxGeometry x="20" y="15" width="40" height="50" as="geometry" />
        </mxCell>
        <mxCell id="vGGUWoOZ8pob6DAX7Hds-82" value="Store Procedure" style="text;html=1;align=center;verticalAlign=middle;resizable=0;points=[];autosize=1;strokeColor=none;fillColor=none;" parent="vGGUWoOZ8pob6DAX7Hds-78" vertex="1">
          <mxGeometry width="110" height="30" as="geometry" />
        </mxCell>
        <mxCell id="vGGUWoOZ8pob6DAX7Hds-83" value="PCLA" style="text;html=1;align=center;verticalAlign=middle;resizable=0;points=[];autosize=1;strokeColor=none;fillColor=none;" parent="vGGUWoOZ8pob6DAX7Hds-71" vertex="1">
          <mxGeometry x="1.8699999999999974" width="50" height="30" as="geometry" />
        </mxCell>
        <mxCell id="vGGUWoOZ8pob6DAX7Hds-84" style="edgeStyle=orthogonalEdgeStyle;rounded=0;orthogonalLoop=1;jettySize=auto;html=1;entryX=0;entryY=0.5;entryDx=0;entryDy=0;" parent="1" source="vGGUWoOZ8pob6DAX7Hds-80" target="vGGUWoOZ8pob6DAX7Hds-64" edge="1">
          <mxGeometry relative="1" as="geometry" />
        </mxCell>
        <mxCell id="vGGUWoOZ8pob6DAX7Hds-85" value="3" style="edgeLabel;html=1;align=center;verticalAlign=middle;resizable=0;points=[];fontStyle=1" parent="vGGUWoOZ8pob6DAX7Hds-84" vertex="1" connectable="0">
          <mxGeometry x="-0.0958" y="-2" relative="1" as="geometry">
            <mxPoint as="offset" />
          </mxGeometry>
        </mxCell>
        <mxCell id="vGGUWoOZ8pob6DAX7Hds-86" value="Export&amp;nbsp;" style="text;html=1;align=center;verticalAlign=middle;resizable=0;points=[];autosize=1;strokeColor=none;fillColor=none;labelBackgroundColor=none;" parent="1" vertex="1">
          <mxGeometry x="451.87" y="660" width="60" height="30" as="geometry" />
        </mxCell>
        <mxCell id="vGGUWoOZ8pob6DAX7Hds-87" value="Import to temp table" style="text;html=1;align=center;verticalAlign=middle;resizable=0;points=[];autosize=1;strokeColor=none;fillColor=none;" parent="1" vertex="1">
          <mxGeometry x="441.87" y="760" width="130" height="30" as="geometry" />
        </mxCell>
        <mxCell id="vGGUWoOZ8pob6DAX7Hds-88" value="Modelling and mapping&amp;nbsp;" style="text;html=1;align=center;verticalAlign=middle;resizable=0;points=[];autosize=1;strokeColor=none;fillColor=none;" parent="1" vertex="1">
          <mxGeometry x="391.87" y="870" width="150" height="30" as="geometry" />
        </mxCell>
      </root>
    </mxGraphModel>
  </diagram>
  <diagram id="e4G73ln96WH7nvFPt8Ru" name="MongoDB Replication Pipeline Setup">
    <mxGraphModel dx="1434" dy="758" grid="1" gridSize="10" guides="1" tooltips="1" connect="1" arrows="1" fold="1" page="1" pageScale="1" pageWidth="1100" pageHeight="850" math="0" shadow="0">
      <root>
        <mxCell id="0" />
        <mxCell id="1" parent="0" />
        <mxCell id="PfO0vZvN7gFX_CFMX7N--1" value="" style="rounded=0;whiteSpace=wrap;html=1;fontFamily=Verdana;fontSize=30;strokeColor=#990000;" vertex="1" parent="1">
          <mxGeometry x="20" y="20" width="830" height="60" as="geometry" />
        </mxCell>
        <mxCell id="PfO0vZvN7gFX_CFMX7N--2" value="MongoDB Data Replication Pipeline Setup" style="text;html=1;strokeColor=none;fillColor=none;align=left;verticalAlign=middle;whiteSpace=wrap;rounded=0;fontStyle=1;fontFamily=Helvetica;fontSize=30;" vertex="1" parent="1">
          <mxGeometry x="40" y="35" width="720" height="30" as="geometry" />
        </mxCell>
        <mxCell id="PfO0vZvN7gFX_CFMX7N--20" value="" style="group;recursiveResize=0;" vertex="1" connectable="0" parent="1">
          <mxGeometry x="200" y="280" width="220" height="200" as="geometry" />
        </mxCell>
        <mxCell id="PfO0vZvN7gFX_CFMX7N--18" value="" style="whiteSpace=wrap;html=1;aspect=fixed;" vertex="1" parent="PfO0vZvN7gFX_CFMX7N--20">
          <mxGeometry x="11.54" y="6.8" width="193.2" height="193.2" as="geometry" />
        </mxCell>
        <mxCell id="PfO0vZvN7gFX_CFMX7N--19" value="VNET" style="text;html=1;align=center;verticalAlign=middle;resizable=0;points=[];autosize=1;strokeColor=none;fillColor=none;" vertex="1" parent="PfO0vZvN7gFX_CFMX7N--20">
          <mxGeometry x="2" y="3" width="60" height="30" as="geometry" />
        </mxCell>
        <mxCell id="PfO0vZvN7gFX_CFMX7N--17" value="&lt;font data-font-src=&quot;https://fonts.googleapis.com/css?family=Inter&quot; face=&quot;Inter&quot; color=&quot;#ffffff&quot;&gt;SSIS-IR&lt;/font&gt;" style="text;html=1;strokeColor=none;fillColor=#007FFF;align=center;verticalAlign=middle;whiteSpace=wrap;rounded=1;" vertex="1" parent="PfO0vZvN7gFX_CFMX7N--20">
          <mxGeometry x="68.75" y="83.39999999999998" width="82.5" height="40" as="geometry" />
        </mxCell>
        <mxCell id="PfO0vZvN7gFX_CFMX7N--34" style="rounded=0;orthogonalLoop=1;jettySize=auto;html=1;exitX=0;exitY=0.5;exitDx=0;exitDy=0;entryX=0;entryY=0.5;entryDx=0;entryDy=0;edgeStyle=orthogonalEdgeStyle;endArrow=oval;endFill=1;" edge="1" parent="PfO0vZvN7gFX_CFMX7N--20" source="PfO0vZvN7gFX_CFMX7N--18" target="PfO0vZvN7gFX_CFMX7N--18">
          <mxGeometry relative="1" as="geometry" />
        </mxCell>
        <mxCell id="PfO0vZvN7gFX_CFMX7N--33" value="" style="group" vertex="1" connectable="0" parent="1">
          <mxGeometry x="40" y="150" width="120" height="120" as="geometry" />
        </mxCell>
        <mxCell id="PfO0vZvN7gFX_CFMX7N--28" value="" style="rounded=0;whiteSpace=wrap;html=1;" vertex="1" parent="PfO0vZvN7gFX_CFMX7N--33">
          <mxGeometry x="5" y="10" width="110" height="110" as="geometry" />
        </mxCell>
        <mxCell id="PfO0vZvN7gFX_CFMX7N--29" value="&lt;p&gt;&lt;font data-font-src=&quot;https://fonts.googleapis.com/css?family=Inter&quot; face=&quot;Inter&quot;&gt;SSIS Catalog DB&lt;/font&gt;&lt;/p&gt;" style="text;html=1;align=center;verticalAlign=middle;resizable=0;points=[];autosize=1;strokeColor=none;fillColor=none;" vertex="1" parent="PfO0vZvN7gFX_CFMX7N--33">
          <mxGeometry width="120" height="50" as="geometry" />
        </mxCell>
        <mxCell id="PfO0vZvN7gFX_CFMX7N--30" value="" style="group" vertex="1" connectable="0" parent="PfO0vZvN7gFX_CFMX7N--33">
          <mxGeometry x="35" y="40" width="60" height="70" as="geometry" />
        </mxCell>
        <mxCell id="PfO0vZvN7gFX_CFMX7N--31" value="" style="image;aspect=fixed;html=1;points=[];align=center;fontSize=12;image=img/lib/azure2/databases/SQL_Database.svg;" vertex="1" parent="PfO0vZvN7gFX_CFMX7N--30">
          <mxGeometry width="48" height="64" as="geometry" />
        </mxCell>
        <mxCell id="PfO0vZvN7gFX_CFMX7N--32" value="" style="html=1;verticalLabelPosition=bottom;align=center;labelBackgroundColor=#ffffff;verticalAlign=top;strokeWidth=2;strokeColor=#0080F0;shadow=0;dashed=0;shape=mxgraph.ios7.icons.cloud;" vertex="1" parent="PfO0vZvN7gFX_CFMX7N--30">
          <mxGeometry x="30" y="50" width="30" height="20" as="geometry" />
        </mxCell>
        <mxCell id="PfO0vZvN7gFX_CFMX7N--36" style="edgeStyle=orthogonalEdgeStyle;rounded=0;orthogonalLoop=1;jettySize=auto;html=1;exitX=0.5;exitY=1;exitDx=0;exitDy=0;entryX=0;entryY=0.5;entryDx=0;entryDy=0;endArrow=oval;endFill=1;strokeColor=#007FFF;" edge="1" parent="1" source="PfO0vZvN7gFX_CFMX7N--28" target="PfO0vZvN7gFX_CFMX7N--18">
          <mxGeometry relative="1" as="geometry" />
        </mxCell>
        <mxCell id="PfO0vZvN7gFX_CFMX7N--37" style="edgeStyle=orthogonalEdgeStyle;rounded=0;orthogonalLoop=1;jettySize=auto;html=1;entryX=0.979;entryY=0.531;entryDx=0;entryDy=0;entryPerimeter=0;targetPerimeterSpacing=0;shadow=0;exitX=0.5;exitY=0;exitDx=0;exitDy=0;" edge="1" parent="1" source="PfO0vZvN7gFX_CFMX7N--17" target="PfO0vZvN7gFX_CFMX7N--31">
          <mxGeometry relative="1" as="geometry">
            <Array as="points">
              <mxPoint x="310" y="224" />
            </Array>
          </mxGeometry>
        </mxCell>
        <mxCell id="PfO0vZvN7gFX_CFMX7N--38" value="Service Endpoint" style="text;html=1;align=center;verticalAlign=middle;resizable=0;points=[];autosize=1;strokeColor=none;fillColor=none;" vertex="1" parent="1">
          <mxGeometry x="165" y="198" width="110" height="30" as="geometry" />
        </mxCell>
      </root>
    </mxGraphModel>
  </diagram>
</mxfile>
